<svg width="2814" height="513" viewBox="0 0 2814 513" fill="none" xmlns="http://www.w3.org/2000/svg">
<g clip-path="url(#clip0_1_4117)">
<path d="M710.905 204.961C721.785 185.29 736.95 169.904 756.402 158.915C775.854 147.925 797.943 142.43 822.56 142.43C852.782 142.43 878.607 150.453 900.147 166.388C921.687 182.323 935.974 204.082 943.227 231.666H875.091C870.035 221.006 862.782 212.984 853.551 207.379C844.21 201.774 833.66 199.027 821.791 199.027C802.669 199.027 787.283 205.621 775.414 218.918C763.545 232.216 757.611 250.019 757.611 272.218C757.611 294.417 763.545 312.221 775.414 325.518C787.283 338.816 802.669 345.41 821.791 345.41C833.66 345.41 844.21 342.662 853.551 337.057C862.892 331.453 870.035 323.43 875.091 312.77H943.227C935.974 340.354 921.577 362.004 900.147 377.829C878.607 393.654 852.782 401.567 822.56 401.567C797.943 401.567 775.854 396.072 756.402 385.082C736.95 374.093 721.785 358.817 710.905 339.255C700.025 319.694 694.64 297.385 694.64 272.218C694.64 247.052 700.025 224.633 710.905 204.961Z" fill="#FEFEFE"/>
<path d="M1012.68 390.029C996.855 381.567 984.437 369.479 975.315 353.763C966.304 338.048 961.688 319.695 961.688 298.705C961.688 277.715 966.304 259.582 975.425 243.757C984.656 227.931 997.185 215.843 1013.12 207.381C1029.05 198.919 1046.97 194.743 1066.75 194.743C1086.53 194.743 1104.44 198.919 1120.38 207.381C1136.31 215.843 1148.84 227.931 1158.07 243.757C1167.3 259.582 1171.81 277.935 1171.81 298.705C1171.81 319.476 1167.19 337.828 1157.85 353.653C1148.51 369.479 1135.87 381.567 1119.83 390.029C1103.78 398.491 1085.87 402.667 1065.98 402.667C1046.09 402.667 1028.4 398.491 1012.57 390.029H1012.68ZM1096.42 336.07C1104.77 327.388 1108.95 314.97 1108.95 298.705C1108.95 282.44 1104.88 270.132 1096.86 261.34C1088.73 252.658 1078.84 248.262 1066.97 248.262C1055.1 248.262 1044.88 252.548 1036.86 261.12C1028.83 269.692 1024.88 282.221 1024.88 298.595C1024.88 314.97 1028.83 327.278 1036.64 335.96C1044.44 344.642 1054.33 349.038 1066.2 349.038C1078.07 349.038 1088.18 344.642 1096.42 335.96V336.07Z" fill="#FEFEFE"/>
<path d="M1197.09 243.536C1204.89 227.82 1215.66 215.732 1229.17 207.27C1242.69 198.808 1257.75 194.632 1274.45 194.632C1287.75 194.632 1299.84 197.379 1310.83 202.984C1321.82 208.588 1330.5 216.061 1336.76 225.403V131.551H1398.75V399.699H1336.76V370.686C1330.94 380.357 1322.7 388.05 1311.93 393.874C1301.16 399.699 1288.63 402.556 1274.45 402.556C1257.75 402.556 1242.69 398.27 1229.17 389.698C1215.66 381.126 1205 368.928 1197.09 353.103C1189.28 337.278 1185.33 319.035 1185.33 298.154C1185.33 277.274 1189.28 259.141 1197.09 243.426V243.536ZM1323.91 261.998C1315.33 253.097 1304.89 248.591 1292.59 248.591C1280.28 248.591 1269.84 252.987 1261.26 261.778C1252.69 270.57 1248.41 282.769 1248.41 298.154C1248.41 313.54 1252.69 325.848 1261.26 334.97C1269.84 343.981 1280.28 348.597 1292.59 348.597C1304.89 348.597 1315.33 344.091 1323.91 335.19C1332.48 326.288 1336.76 314.089 1336.76 298.594C1336.76 283.098 1332.48 270.9 1323.91 261.998Z" fill="#FEFEFE"/>
<path d="M1626.01 313.54H1485.79C1486.77 326.068 1490.84 335.739 1497.87 342.333C1505.02 348.926 1513.81 352.333 1524.14 352.333C1539.64 352.333 1550.41 345.849 1556.45 332.772H1622.39C1618.98 346.069 1612.94 358.048 1604.03 368.598C1595.24 379.258 1584.14 387.61 1570.85 393.654C1557.55 399.699 1542.71 402.666 1526.23 402.666C1506.45 402.666 1488.75 398.49 1473.37 390.028C1457.87 381.566 1445.78 369.477 1437.1 353.762C1428.42 338.047 1424.02 319.694 1424.02 298.704C1424.02 277.713 1428.31 259.361 1436.88 243.645C1445.45 227.93 1457.43 215.841 1472.93 207.379C1488.42 198.917 1506.12 194.741 1526.23 194.741C1546.34 194.741 1563.15 198.807 1578.43 207.05C1593.59 215.292 1605.57 226.941 1614.15 242.217C1622.72 257.382 1627 275.186 1627 295.517C1627 301.341 1626.67 307.385 1625.9 313.65L1626.01 313.54ZM1563.7 279.142C1563.7 268.482 1560.08 260.02 1552.82 253.756C1545.57 247.492 1536.56 244.305 1525.68 244.305C1514.8 244.305 1506.56 247.272 1499.41 253.316C1492.27 259.361 1487.87 267.932 1486.23 279.032H1563.81L1563.7 279.142Z" fill="#FEFEFE"/>
<path d="M1785.8 399.809L1732.94 303.759H1718.11V399.809H1656.13V145.397H1760.09C1780.2 145.397 1797.23 148.914 1811.41 155.948C1825.59 162.981 1836.14 172.542 1843.17 184.741C1850.2 196.939 1853.72 210.566 1853.72 225.512C1853.72 242.436 1849 257.492 1839.43 270.79C1829.87 284.087 1815.81 293.538 1797.23 299.033L1855.92 399.809H1785.91H1785.8ZM1718 259.91H1756.46C1767.78 259.91 1776.35 257.163 1781.96 251.558C1787.67 245.953 1790.53 238.15 1790.53 228.04C1790.53 217.929 1787.67 210.786 1781.96 205.181C1776.24 199.577 1767.78 196.829 1756.46 196.829H1718V259.91Z" fill="#FEFEFE"/>
<path d="M1884.6 243.536C1892.41 227.82 1903.18 215.732 1916.69 207.27C1930.21 198.808 1945.38 195.84 1961.97 195.84H2086.26V399.699H2024.28V371.126C2018.24 380.577 2009.89 388.16 1999.12 393.984C1988.35 399.809 1975.82 402.666 1961.64 402.666C1945.16 402.666 1930.21 398.38 1916.69 389.808C1903.18 381.236 1892.52 369.038 1884.6 353.213C1876.8 337.387 1872.84 319.145 1872.84 298.264C1872.84 277.384 1876.8 259.251 1884.6 243.536ZM2011.42 261.998C2002.85 253.097 1992.41 248.591 1980.1 248.591C1967.8 248.591 1957.35 252.987 1948.78 261.778C1940.21 270.57 1935.93 282.769 1935.93 298.154C1935.93 313.54 1940.21 325.848 1948.78 334.97C1957.35 343.981 1967.8 348.597 1980.1 348.597C1992.41 348.597 2002.85 344.091 2011.42 335.189C2020 326.288 2024.28 314.089 2024.28 298.594C2024.28 283.098 2020 270.9 2011.42 261.998Z" fill="#FEFEFE"/>
<path d="M2211 203.313C2221.88 197.489 2234.29 194.632 2248.36 194.632C2265.07 194.632 2280.12 198.808 2293.64 207.27C2307.16 215.732 2317.82 227.82 2325.73 243.536C2333.53 259.251 2337.49 277.494 2337.49 298.264C2337.49 319.035 2333.53 337.387 2325.73 353.213C2317.93 369.038 2307.16 381.236 2293.64 389.808C2280.12 398.38 2265.07 402.666 2248.36 402.666C2234.07 402.666 2221.66 399.809 2211 394.204C2200.34 388.49 2191.98 381.017 2185.94 371.565V399.809H2123.96V131.551H2185.94V226.172C2191.76 216.721 2200.12 209.138 2211 203.313ZM2261.55 261.888C2252.98 253.097 2242.43 248.701 2229.79 248.701C2217.15 248.701 2207.04 253.207 2198.47 262.108C2189.9 271.01 2185.61 283.208 2185.61 298.704C2185.61 314.199 2189.9 326.398 2198.47 335.299C2207.04 344.201 2217.48 348.707 2229.79 348.707C2242.1 348.707 2252.65 344.201 2261.33 335.08C2270.01 326.068 2274.41 313.76 2274.41 298.264C2274.41 282.769 2270.12 270.68 2261.55 261.888Z" fill="#FEFEFE"/>
<path d="M2449.8 203.314C2460.68 197.49 2473.1 194.633 2487.17 194.633C2503.87 194.633 2518.93 198.809 2532.45 207.271C2545.96 215.733 2556.62 227.821 2564.54 243.537C2572.34 259.252 2576.3 277.495 2576.3 298.265C2576.3 319.036 2572.34 337.388 2564.54 353.214C2556.73 369.039 2545.96 381.237 2532.45 389.809C2518.93 398.381 2503.87 402.667 2487.17 402.667C2472.88 402.667 2460.46 399.81 2449.8 394.205C2439.14 388.491 2430.79 381.018 2424.75 371.566V399.81H2362.77V131.552H2424.75V226.173C2430.57 216.722 2438.93 209.139 2449.8 203.314ZM2500.36 261.889C2491.79 253.098 2481.24 248.702 2468.6 248.702C2455.96 248.702 2445.85 253.208 2437.28 262.109C2428.7 271.011 2424.42 283.209 2424.42 298.705C2424.42 314.2 2428.7 326.399 2437.28 335.3C2445.85 344.202 2456.29 348.708 2468.6 348.708C2480.91 348.708 2491.46 344.202 2500.14 335.081C2508.82 326.069 2513.22 313.761 2513.22 298.265C2513.22 282.77 2508.93 270.681 2500.36 261.889Z" fill="#FEFEFE"/>
<path d="M2606.18 166.937C2599.26 160.563 2595.85 152.651 2595.85 143.2C2595.85 133.749 2599.26 125.506 2606.18 119.132C2613.11 112.758 2621.9 109.571 2632.78 109.571C2643.66 109.571 2652.12 112.758 2659.04 119.132C2665.97 125.506 2669.37 133.529 2669.37 143.2C2669.37 152.871 2665.97 160.563 2659.04 166.937C2652.12 173.311 2643.44 176.498 2632.78 176.498C2622.12 176.498 2613 173.311 2606.18 166.937ZM2663.66 197.599V399.809H2601.68V197.489H2663.66V197.599Z" fill="#FEFEFE"/>
<path d="M2814 347.169V399.699H2782.46C2760.04 399.699 2742.46 394.204 2729.93 383.215C2717.4 372.225 2711.14 354.312 2711.14 329.365V248.921H2686.52V197.489H2711.14V148.255H2773.12V197.489H2813.67V248.921H2773.12V330.135C2773.12 336.179 2774.55 340.575 2777.52 343.212C2780.37 345.85 2785.21 347.169 2792.02 347.169H2814.11H2814Z" fill="#FEFEFE"/>
</g>
<path d="M256.138 512.274C397.599 512.274 512.274 397.598 512.274 256.137C512.274 114.676 397.599 0 256.138 0C114.677 0 0 114.676 0 256.137C0 397.598 114.677 512.274 256.138 512.274Z" fill="#FEFEFE"/>
<path d="M426.826 212.551C426.826 212.551 391.654 166.417 347.446 163.779C318.918 162.051 312.007 165.962 310.769 168.875C308.998 153.771 296.418 83.7929 209.509 68.9629C220.604 150.806 266.423 129.481 293.406 185.892C293.406 185.892 247.871 122.376 173.011 145.761C173.011 145.761 200.296 204.545 281.002 216.556C281.002 216.556 287.47 239.305 289.419 243.31C289.419 243.31 165.125 176.791 127.385 304.458C99.2982 297.929 89.8771 329.218 122.16 350.592C122.16 350.592 127.652 328.208 141.028 321.564C141.028 321.564 112.325 354.416 146.078 393.758H267.224C270.151 388.783 283.107 362.602 251.066 342.785C273.683 342.453 292.094 386.235 311.902 394.06H340.711C341.686 391.63 343.723 384.35 338.938 377.801C331.56 369.116 315.407 370.292 315.551 354.231C321.129 279.523 430.293 302.464 426.822 212.551H426.826Z" fill="#121014"/>
<defs>
<clipPath id="clip0_1_4117">
<rect width="2806.98" height="435.521" fill="#121014" transform="translate(7.01562 22.4219)"/>
</clipPath>
</defs>
</svg>
